<svg width="100" height="100" viewBox="0 0 100 100" fill="none" xmlns="http://www.w3.org/2000/svg">
<circle cx="50" cy="50" r="50" fill="#F7FBFF"/>
<path d="M50 85.6666C45.6667 81.8333 40.9306 78.8889 35.7917 76.8333C30.6528 74.7777 25.3889 73.75 20 73.75V38C25.2222 38 30.4028 39.1944 35.5417 41.5833C40.6806 43.9722 45.5 47.3055 50 51.5833C54.5 47.3055 59.3194 43.9722 64.4583 41.5833C69.5972 39.1944 74.7778 38 80 38V73.75C74.6111 73.75 69.3472 74.7777 64.2083 76.8333C59.0694 78.8889 54.3333 81.8333 50 85.6666ZM50.25 39.6667C46.6389 39.6667 43.5972 38.4305 41.125 35.9583C38.6528 33.4861 37.4167 30.4444 37.4167 26.8333C37.4167 23.2222 38.6528 20.1806 41.125 17.7083C43.5972 15.2361 46.6389 14 50.25 14C53.8611 14 56.9028 15.2361 59.375 17.7083C61.8472 20.1806 63.0833 23.2222 63.0833 26.8333C63.0833 30.4444 61.8472 33.4861 59.375 35.9583C56.9028 38.4305 53.8611 39.6667 50.25 39.6667Z" fill="black"/>
</svg>
