<svg width="186" height="36" viewBox="0 0 186 36" fill="none" xmlns="http://www.w3.org/2000/svg">
<path d="M0.2 35V2H19.16V8.76H7.9V15.08H18.68V21.84H7.9V28.24H19.16V35H0.2ZM34.3425 35.64C32.5025 35.64 30.8225 35.18 29.3025 34.26C27.7825 33.34 26.5625 32.06 25.6425 30.42C24.7358 28.78 24.2825 26.8933 24.2825 24.76C24.2825 22.6933 24.7225 20.84 25.6025 19.2C26.4825 17.56 27.6892 16.2667 29.2225 15.32C30.7692 14.36 32.5358 13.88 34.5225 13.88C35.8158 13.88 37.0292 14.1 38.1625 14.54C39.2958 14.98 40.2692 15.6 41.0825 16.4V0.599999H48.3825V35H41.0825V32.88C40.1625 33.76 39.1225 34.44 37.9625 34.92C36.8158 35.4 35.6092 35.64 34.3425 35.64ZM36.5825 29.46C37.4892 29.46 38.2892 29.26 38.9825 28.86C39.6892 28.4467 40.2358 27.8867 40.6225 27.18C41.0225 26.4733 41.2225 25.68 41.2225 24.8C41.2225 23.88 41.0225 23.0667 40.6225 22.36C40.2225 21.6533 39.6758 21.0933 38.9825 20.68C38.2892 20.2667 37.4958 20.06 36.6025 20.06C35.7225 20.06 34.9358 20.2667 34.2425 20.68C33.5492 21.0933 32.9958 21.66 32.5825 22.38C32.1825 23.0867 31.9825 23.9 31.9825 24.82C31.9825 25.7 32.1758 26.4933 32.5625 27.2C32.9625 27.8933 33.5092 28.4467 34.2025 28.86C34.8958 29.26 35.6892 29.46 36.5825 29.46ZM65.8022 35.64C61.8289 35.64 58.9622 34.8867 57.2022 33.38C55.4422 31.8733 54.5622 29.4267 54.5622 26.04V14.52H61.8622V24.24C61.8622 26.2533 62.1555 27.6733 62.7422 28.5C63.3422 29.3133 64.3622 29.72 65.8022 29.72C67.2555 29.72 68.2755 29.3133 68.8622 28.5C69.4489 27.6733 69.7422 26.2533 69.7422 24.24V14.52H77.0422V26.04C77.0422 29.4267 76.1622 31.8733 74.4022 33.38C72.6422 34.8867 69.7755 35.64 65.8022 35.64ZM92.8472 35.64C91.2739 35.64 89.7872 35.36 88.3872 34.8C87.0005 34.24 85.7739 33.46 84.7072 32.46C83.6405 31.46 82.8005 30.3067 82.1872 29C81.5739 27.68 81.2672 26.2733 81.2672 24.78C81.2672 23.3533 81.5539 21.9933 82.1272 20.7C82.7139 19.3933 83.5272 18.2267 84.5672 17.2C85.6072 16.1733 86.8272 15.3667 88.2272 14.78C89.6272 14.18 91.1539 13.88 92.8072 13.88C94.1272 13.88 95.3939 14.0667 96.6072 14.44C97.8339 14.8 98.8005 15.2533 99.5072 15.8L97.0872 20.72C96.2605 20.1333 95.2205 19.84 93.9672 19.84C92.8605 19.84 91.9339 20.0867 91.1872 20.58C90.4405 21.0733 89.8805 21.7 89.5072 22.46C89.1472 23.22 88.9672 23.9867 88.9672 24.76C88.9672 25.6533 89.1739 26.4733 89.5872 27.22C90.0005 27.9667 90.5872 28.5667 91.3472 29.02C92.1072 29.46 92.9939 29.68 94.0072 29.68C94.6472 29.68 95.2339 29.6 95.7672 29.44C96.3005 29.2667 96.7405 29.0533 97.0872 28.8L99.5072 33.72C98.7872 34.2533 97.8272 34.7067 96.6272 35.08C95.4272 35.4533 94.1672 35.64 92.8472 35.64ZM112.235 35.64C110.355 35.64 108.648 35.1733 107.115 34.24C105.582 33.2933 104.362 32 103.455 30.36C102.548 28.7067 102.095 26.8267 102.095 24.72C102.095 22.68 102.528 20.8467 103.395 19.22C104.262 17.58 105.455 16.28 106.975 15.32C108.495 14.36 110.248 13.88 112.235 13.88C113.528 13.88 114.755 14.1 115.915 14.54C117.088 14.98 118.082 15.6 118.895 16.4V14.52H126.195V35H118.895V32.88C117.935 33.7867 116.895 34.4733 115.775 34.94C114.668 35.4067 113.488 35.64 112.235 35.64ZM114.435 29.46C115.342 29.46 116.142 29.26 116.835 28.86C117.528 28.4467 118.068 27.8867 118.455 27.18C118.842 26.4733 119.035 25.6667 119.035 24.76C119.035 23.8533 118.835 23.0467 118.435 22.34C118.048 21.6333 117.508 21.08 116.815 20.68C116.122 20.2667 115.328 20.06 114.435 20.06C113.555 20.06 112.762 20.2667 112.055 20.68C111.362 21.08 110.808 21.6333 110.395 22.34C109.995 23.0467 109.795 23.8533 109.795 24.76C109.795 25.6533 109.995 26.46 110.395 27.18C110.795 27.8867 111.342 28.4467 112.035 28.86C112.742 29.26 113.542 29.46 114.435 29.46ZM140.421 35.64C138.208 35.64 136.481 34.9467 135.241 33.56C134.001 32.16 133.381 30.2067 133.381 27.7V20.06H130.401V14.52H133.381V6.84H140.681V14.52H144.961V20.06H140.681V27.16C140.681 27.8 140.808 28.2867 141.061 28.62C141.328 28.9533 141.715 29.12 142.221 29.12C142.808 29.12 143.388 28.9067 143.961 28.48L145.781 34.34C145.008 34.74 144.148 35.0533 143.201 35.28C142.255 35.52 141.328 35.64 140.421 35.64ZM160.628 35.64C158.388 35.64 156.375 35.16 154.588 34.2C152.801 33.24 151.388 31.94 150.348 30.3C149.321 28.66 148.808 26.8067 148.808 24.74C148.808 23.2067 149.101 21.7867 149.688 20.48C150.275 19.16 151.095 18.0067 152.148 17.02C153.201 16.02 154.428 15.2467 155.828 14.7C157.241 14.1533 158.768 13.88 160.408 13.88C162.541 13.88 164.408 14.3267 166.008 15.22C167.621 16.1 168.881 17.3333 169.788 18.92C170.695 20.4933 171.148 22.32 171.148 24.4C171.148 24.5733 171.141 24.7333 171.128 24.88C171.128 25.0267 171.108 25.32 171.068 25.76H156.328C156.328 26.5867 156.521 27.3067 156.908 27.92C157.295 28.5333 157.841 29.0133 158.548 29.36C159.255 29.6933 160.088 29.86 161.048 29.86C161.941 29.86 162.721 29.6933 163.388 29.36C164.055 29.0133 164.761 28.4467 165.508 27.66L170.748 30.28C169.788 31.96 168.408 33.2733 166.608 34.22C164.821 35.1667 162.828 35.64 160.628 35.64ZM156.548 22.08H163.988C163.895 21.4133 163.681 20.8533 163.348 20.4C163.015 19.9467 162.588 19.6067 162.068 19.38C161.548 19.14 160.941 19.02 160.248 19.02C159.528 19.02 158.895 19.14 158.348 19.38C157.815 19.62 157.395 19.9667 157.088 20.42C156.781 20.8733 156.601 21.4267 156.548 22.08ZM181.195 35.64C180.328 35.64 179.535 35.4267 178.815 35C178.108 34.5867 177.542 34.0267 177.115 33.32C176.702 32.6 176.495 31.8067 176.495 30.94C176.495 30.0733 176.702 29.2867 177.115 28.58C177.542 27.86 178.108 27.2933 178.815 26.88C179.535 26.4533 180.328 26.24 181.195 26.24C182.062 26.24 182.848 26.4533 183.555 26.88C184.275 27.2933 184.842 27.86 185.255 28.58C185.682 29.2867 185.895 30.0733 185.895 30.94C185.895 31.8067 185.682 32.6 185.255 33.32C184.842 34.0267 184.275 34.5867 183.555 35C182.848 35.4267 182.062 35.64 181.195 35.64Z" fill="#F7FBFF"/>
</svg>
